<svg xmlns="http://www.w3.org/2000/svg" xmlns:xlink="http://www.w3.org/1999/xlink" width="40" zoomAndPan="magnify" viewBox="0 0 30 30.000001" height="40" preserveAspectRatio="xMidYMid meet" version="1.0"><defs><g/><clipPath id="1b5e9da5b7"><path d="M 3.71875 1.691406 L 26.214844 1.691406 L 26.214844 27.097656 L 3.71875 27.097656 Z M 3.71875 1.691406 " clip-rule="nonzero"/></clipPath></defs><g clip-path="url(#1b5e9da5b7)"><path fill="#64ffda" d="M 15 2.625 C 14.929688 2.625 14.863281 2.644531 14.800781 2.679688 L 4.847656 8.425781 C 4.726562 8.496094 4.652344 8.625 4.652344 8.769531 L 4.652344 20.257812 C 4.652344 20.402344 4.726562 20.53125 4.847656 20.601562 L 14.800781 26.347656 C 14.921875 26.417969 15.074219 26.417969 15.195312 26.347656 L 25.148438 20.601562 C 25.269531 20.53125 25.347656 20.402344 25.347656 20.257812 L 25.347656 8.769531 C 25.347656 8.625 25.269531 8.496094 25.148438 8.425781 L 15.195312 2.679688 C 15.136719 2.644531 15.066406 2.625 15 2.625 Z M 15 27.335938 C 14.769531 27.335938 14.539062 27.277344 14.332031 27.15625 L 4.382812 21.410156 C 3.972656 21.175781 3.71875 20.734375 3.71875 20.257812 L 3.71875 8.769531 C 3.71875 8.292969 3.972656 7.851562 4.382812 7.617188 L 14.332031 1.871094 C 14.742188 1.632812 15.253906 1.632812 15.664062 1.871094 L 25.617188 7.617188 C 26.027344 7.851562 26.28125 8.292969 26.28125 8.769531 L 26.28125 20.257812 C 26.28125 20.734375 26.027344 21.175781 25.617188 21.410156 L 15.664062 27.15625 C 15.457031 27.277344 15.230469 27.335938 15 27.335938 " fill-opacity="1" fill-rule="nonzero"/></g><g fill="#5ce1e6" fill-opacity="0.302"><g transform="translate(9.765247, 18.800064)"><g><path d="M 0.328125 0 L 5.90625 -13.546875 L 7.484375 -13.546875 L 13.0625 0 L 11.265625 0 L 9.984375 -3.078125 L 3.390625 -3.078125 L 2.140625 0 Z M 4.046875 -4.65625 L 9.34375 -4.65625 L 6.6875 -11.15625 Z M 4.046875 -4.65625 "/></g></g></g><g fill="#5ce1e6" fill-opacity="0.502"><g transform="translate(9.031636, 18.955998)"><g><path d="M 0.328125 0 L 5.90625 -13.546875 L 7.484375 -13.546875 L 13.0625 0 L 11.265625 0 L 9.984375 -3.078125 L 3.390625 -3.078125 L 2.140625 0 Z M 4.046875 -4.65625 L 9.34375 -4.65625 L 6.6875 -11.15625 Z M 4.046875 -4.65625 "/></g></g></g><g fill="#5bffd3" fill-opacity="1"><g transform="translate(8.298024, 19.111932)"><g><path d="M 0.328125 0 L 5.90625 -13.546875 L 7.484375 -13.546875 L 13.0625 0 L 11.265625 0 L 9.984375 -3.078125 L 3.390625 -3.078125 L 2.140625 0 Z M 4.046875 -4.65625 L 9.34375 -4.65625 L 6.6875 -11.15625 Z M 4.046875 -4.65625 "/></g></g></g></svg>